<?xml version="1.0" standalone="no"?>
<!DOCTYPE svg PUBLIC "-//W3C//DTD SVG 20010904//EN"
 "http://www.w3.org/TR/2001/REC-SVG-20010904/DTD/svg10.dtd">
<svg version="1.0" xmlns="http://www.w3.org/2000/svg"
 width="1024.000000pt" height="1024.000000pt" viewBox="0 0 1024.000000 1024.000000"
 preserveAspectRatio="xMidYMid meet">

<g transform="translate(0.000000,1024.000000) scale(0.100000,-0.100000)"
fill="#000000" stroke="none">
<path d="M2397 7086 c-109 -39 -215 -133 -304 -267 -38 -58 -28 -90 63 -193
81 -94 97 -130 70 -171 -9 -14 -21 -25 -27 -25 -19 0 -185 -87 -251 -131 -93
-62 -222 -193 -278 -280 -102 -160 -159 -348 -210 -699 -46 -312 -109 -538
-211 -747 -82 -167 -202 -336 -319 -448 -49 -47 -63 -76 -51 -108 6 -14 62
-56 147 -111 77 -48 213 -139 304 -203 187 -131 211 -143 277 -143 39 0 56 6
86 31 94 78 208 273 246 421 44 172 71 607 71 1164 0 276 11 440 37 539 20 77
101 245 118 245 25 0 25 -17 0 -71 -58 -129 -58 -121 -65 -814 -9 -722 -15
-798 -90 -1060 -11 -38 -18 -70 -17 -71 1 -2 34 -9 72 -17 156 -33 375 -131
595 -267 175 -108 186 -113 234 -106 23 3 187 62 366 131 179 70 425 164 547
210 242 92 264 103 281 141 16 34 17 1966 1 1995 -17 33 -52 40 -116 22 -32
-8 -68 -18 -80 -20 l-23 -5 0 190 c0 180 -1 192 -20 202 -16 8 -97 -21 -447
-160 l-428 -171 -62 33 -62 33 43 21 c65 32 104 62 136 106 16 22 47 52 69 68
56 41 90 104 107 202 9 46 22 96 30 111 31 62 17 79 -171 221 -198 149 -346
214 -510 222 -78 4 -99 2 -158 -20z m703 -478 c0 -34 -66 -145 -117 -200 -67
-70 -146 -113 -242 -134 -36 -7 -69 -14 -72 -14 -9 0 228 230 281 272 45 36
128 88 143 88 4 0 7 -6 7 -12z m630 -515 l0 -118 -323 -107 c-398 -132 -437
-143 -483 -128 -19 7 -119 68 -222 138 -207 139 -295 184 -392 202 -89 17 -90
17 -90 35 0 20 89 20 184 0 84 -18 158 -52 296 -136 58 -36 118 -70 133 -77
64 -28 97 -18 497 147 212 87 388 159 393 160 4 1 7 -52 7 -116z m220 -1091
l0 -887 -511 -195 c-281 -107 -515 -196 -520 -198 -5 -2 -9 398 -9 930 l0 934
63 1 c70 1 167 30 662 197 171 57 311 105 313 105 1 1 2 -398 2 -887z"/>
<path d="M4789 6477 c-167 -57 -254 -178 -252 -351 1 -58 7 -80 37 -142 57
-113 131 -168 329 -239 198 -71 271 -163 216 -272 -35 -68 -73 -85 -174 -80
-93 4 -158 32 -242 103 l-51 44 -83 -80 -83 -80 47 -45 c113 -108 241 -165
392 -172 309 -16 522 187 475 454 -28 162 -130 259 -353 340 -165 59 -235 111
-244 180 -20 148 183 191 350 73 l58 -40 85 73 86 72 -55 51 c-101 94 -212
134 -372 134 -77 0 -115 -6 -166 -23z"/>
<path d="M5600 6235 l0 -135 -85 0 -85 0 0 -100 0 -100 85 0 85 0 0 -258 c0
-305 7 -343 74 -408 84 -81 235 -97 364 -39 34 15 62 29 62 31 0 2 -17 37 -37
79 -33 65 -40 74 -58 67 -11 -4 -39 -7 -63 -7 -93 1 -112 59 -112 353 l0 182
120 0 120 0 0 95 0 95 -120 0 -120 0 0 140 0 140 -115 0 -115 0 0 -135z"/>
<path d="M6493 6115 c-83 -23 -142 -55 -202 -111 -98 -90 -141 -199 -141 -354
0 -144 38 -243 129 -342 102 -111 260 -162 429 -138 175 24 308 130 372 295
33 83 34 271 3 355 -72 195 -246 311 -463 309 -41 0 -98 -7 -127 -14z m253
-231 c69 -43 106 -113 112 -215 6 -105 -10 -158 -65 -220 -110 -122 -291 -95
-367 55 -27 51 -30 68 -30 145 0 99 20 154 78 210 71 68 185 79 272 25z"/>
<path d="M7613 6100 c-46 -23 -72 -45 -104 -88 -24 -31 -46 -61 -50 -65 -4 -5
-4 30 -2 77 l5 86 -113 0 -114 0 -3 -460 -3 -460 121 0 120 0 0 279 0 279 33
44 c19 26 54 54 87 71 49 26 63 28 138 25 67 -2 82 0 82 12 0 8 5 60 10 114 8
77 7 102 -3 108 -6 4 -42 8 -78 8 -53 0 -77 -6 -126 -30z"/>
<path d="M7870 6113 c0 -2 268 -708 325 -855 27 -71 35 -105 30 -125 -9 -40
-105 -129 -153 -144 -37 -11 -40 -14 -46 -57 -3 -24 -6 -69 -6 -100 l0 -55 51
7 c143 19 273 114 346 253 17 32 49 108 71 168 164 443 325 882 329 895 3 13
-14 15 -121 12 l-125 -3 -95 -292 c-52 -161 -100 -311 -107 -334 -7 -24 -15
-43 -18 -43 -3 0 -56 150 -117 333 l-111 332 -126 5 c-70 3 -127 4 -127 3z"/>
<path d="M5045 4864 c-11 -2 -45 -9 -75 -15 -229 -46 -414 -224 -477 -459 -22
-81 -25 -308 -4 -390 25 -104 87 -216 159 -289 126 -127 269 -183 472 -184
197 -1 337 52 468 177 l74 71 -79 66 c-43 36 -84 68 -90 73 -8 4 -35 -11 -69
-39 -80 -65 -130 -92 -204 -111 -133 -34 -283 6 -365 97 -56 62 -103 170 -117
267 -29 207 55 400 209 478 52 26 68 29 154 29 89 0 99 -2 170 -37 40 -20 93
-53 116 -72 22 -20 44 -36 47 -36 3 0 47 32 97 72 l90 71 -51 52 c-103 105
-260 172 -419 180 -47 2 -95 2 -106 -1z"/>
<path d="M5743 4210 l2 -650 123 0 122 0 0 650 0 650 -124 0 -124 0 1 -650z"/>
<path d="M8258 4774 l-108 -35 0 -590 0 -589 120 0 120 0 0 123 0 123 58 66
c31 37 59 67 62 67 3 1 61 -84 129 -189 l124 -189 139 -3 c76 -2 138 -2 138
-1 0 6 -307 445 -336 480 l-35 43 117 137 c65 76 142 166 172 201 l54 62 -144
0 -144 0 -165 -200 -164 -200 -3 365 c-2 282 -5 365 -15 365 -6 -1 -60 -17
-119 -36z"/>
<path d="M6441 4484 c-226 -61 -366 -286 -331 -533 18 -128 57 -207 144 -289
106 -101 257 -145 417 -122 234 33 399 228 399 472 0 235 -133 417 -345 473
-73 19 -212 18 -284 -1z m246 -215 c85 -41 133 -132 133 -254 0 -160 -96 -270
-236 -269 -106 1 -185 65 -220 180 -40 134 14 291 117 342 59 29 147 30 206 1z"/>
<path d="M7420 4485 c-75 -21 -154 -62 -204 -106 l-41 -36 35 -29 c19 -16 50
-43 69 -60 l34 -31 56 34 c68 41 109 53 185 53 116 0 185 -61 186 -164 0 -32
-3 -37 -17 -32 -40 16 -174 27 -242 21 -109 -9 -194 -40 -251 -92 -62 -56 -85
-113 -84 -213 0 -130 53 -214 168 -267 52 -24 73 -28 146 -27 101 0 172 28
243 93 43 40 45 41 51 19 3 -13 6 -38 6 -55 l0 -33 109 0 110 0 -5 328 c-7
393 -14 433 -93 512 -70 70 -136 92 -286 96 -86 3 -136 -1 -175 -11z m274
-531 c37 -13 46 -20 46 -39 0 -61 -70 -149 -142 -180 -48 -20 -111 -19 -154 1
-85 41 -86 170 -1 216 58 31 163 32 251 2z"/>
</g>
</svg>
